<?xml version="1.0"?>
<svg xmlns="http://www.w3.org/2000/svg" viewBox="0 0 64 64"><g data-name="24 Background" id="_24_Background"><g><path d="M60,6H4a4,4,0,0,0-4,4V54a4,4,0,0,0,4,4H60a4,4,0,0,0,4-4V10A4,4,0,0,0,60,6ZM4,8H60a2,2,0,0,1,2,2V50H2V14H59a1,1,0,0,0,0-2H2V10A2,2,0,0,1,4,8ZM60,56H4a2,2,0,0,1-2-2V52H62v2A2,2,0,0,1,60,56Z"/><path d="M40,16H29a4,4,0,0,0-4,4v9a6.984,6.984,0,0,0,2.638,5.465l-.544,3.807-5.572,2.089A4.12,4.12,0,0,0,19,44v4a1,1,0,0,0,2,0V44a2.119,2.119,0,0,1,1.225-1.766l5.718-2.144,3.61,1.8a1,1,0,0,0,.894,0l4-2a1,1,0,0,0,.543-1.037l-.628-4.393A6.984,6.984,0,0,0,39,29V26a1,1,0,0,0-2,0v3a5,5,0,0,1-10,0V24H37a4,4,0,0,0,4-4V17A1,1,0,0,0,40,16ZM29.506,35.532a6.879,6.879,0,0,0,4.988,0l.414,2.9L32,39.882l-2.908-1.454ZM39,20a2,2,0,0,1-2,2H27V20a2,2,0,0,1,2-2H39Z"/><path d="M44,49a1,1,0,0,1-1-1V44a2.12,2.12,0,0,0-1.224-1.766l-3.128-1.173a1,1,0,1,1,.7-1.872l3.126,1.172A4.12,4.12,0,0,1,45,44v4A1,1,0,0,1,44,49Z"/><path d="M5,22a1,1,0,0,1-.707-1.707l4-4a1,1,0,0,1,1.414,1.414l-4,4A1,1,0,0,1,5,22Z"/><path d="M5,30a1,1,0,0,1-.707-1.707l12-12a1,1,0,0,1,1.414,1.414l-12,12A1,1,0,0,1,5,30Z"/><path d="M5,38a1,1,0,0,1-.707-1.707l18-18a1,1,0,0,1,1.414,1.414l-18,18A1,1,0,0,1,5,38Z"/><path d="M5,46a1,1,0,0,1-.707-1.707l18-18a1,1,0,0,1,1.414,1.414l-18,18A1,1,0,0,1,5,46Z"/><path d="M11,48a1,1,0,0,1-.707-1.707l13-13a1,1,0,0,1,1.414,1.414l-13,13A1,1,0,0,1,11,48Z"/><path d="M41,26a1,1,0,0,1-.707-1.707l8-8a1,1,0,0,1,1.414,1.414l-8,8A1,1,0,0,1,41,26Z"/><path d="M39,36a1,1,0,0,1-.707-1.707l18-18a1,1,0,0,1,1.414,1.414l-18,18A1,1,0,0,1,39,36Z"/><path d="M44,39a1,1,0,0,1-.707-1.707l15-15a1,1,0,0,1,1.414,1.414l-15,15A1,1,0,0,1,44,39Z"/><path d="M47,44a1,1,0,0,1-.707-1.707l12-12a1,1,0,0,1,1.414,1.414l-12,12A1,1,0,0,1,47,44Z"/><path d="M50,49a1,1,0,0,1-.707-1.707l9-9a1,1,0,0,1,1.414,1.414l-9,9A1,1,0,0,1,50,49Z"/><path d="M58,49a1,1,0,0,1-.707-1.707l1-1a1,1,0,0,1,1.414,1.414l-1,1A1,1,0,0,1,58,49Z"/></g></g></svg>
