<?xml version="1.0" encoding="UTF-8"?>
<svg id="Layer_1" xmlns="http://www.w3.org/2000/svg" version="1.1" viewBox="0 0 24 30">
  <!-- Generator: Adobe Illustrator 29.8.4, SVG Export Plug-In . SVG Version: 2.1.1 Build 6)  -->
  <defs>
    <style>
      .st0 {
        fill: #fff;
      }

      .st1 {
        font-family: Arial-BoldMT, Arial;
        font-size: 5px;
        font-weight: 700;
      }

      .st1, .st2 {
        isolation: isolate;
      }

      .st3 {
        fill: #c13600;
      }
    </style>
  </defs>
  <g class="st2">
    <text class="st1" transform="translate(0 39)"><tspan x="0" y="0">Created by Royyan Wijaya</tspan></text>
  </g>
  <g class="st2">
    <text class="st1" transform="translate(0 44)"><tspan x="0" y="0">from the Noun Project</tspan></text>
  </g>
  <g>
    <circle class="st3" cx="12" cy="15" r="12"/>
    <path class="st0" d="M5.34,16.53c-.23-.47-.19-1.03.11-1.45,1.48-2.16,3.92-3.47,6.54-3.48,2.62.02,5.07,1.32,6.54,3.48.3.43.35.98.11,1.45l-.74,1.48c-.17.35-.59.49-.94.32h0l-1.79-.9c-.24-.12-.39-.36-.39-.63l-.08-1.8s-.62-1.29-2.72-1.29-2.72,1.29-2.72,1.29l-.08,1.8c0,.27-.15.51-.39.63l-1.79.9c-.34.17-.76.03-.94-.31h0l-.74-1.48h.02Z"/>
  </g>
</svg>