<?xml version="1.0" encoding="UTF-8"?>
<svg id="Layer_1" xmlns="http://www.w3.org/2000/svg" version="1.1" viewBox="0 0 414.24 414.24">
  <!-- Generator: Adobe Illustrator 29.8.4, SVG Export Plug-In . SVG Version: 2.1.1 Build 6)  -->
  <defs>
    <style>
      .st0 {
        fill: #fff;
      }

      .st1 {
        fill: #318909;
      }
    </style>
  </defs>
  <circle class="st1" cx="207.12" cy="207.12" r="207.12"/>
  <path class="st0" d="M207.12,91.23c25.1,0,45.67,20.56,45.67,45.67v43.79c0,25.12-20.54,45.67-45.66,45.67s-45.67-20.53-45.67-45.67v-43.79c0-25.13,20.54-45.67,45.67-45.67h0ZM173.56,164.34h32.11c7.96,0,7.96,12.1,0,12.1h-32.11v4.25c0,18.45,15.11,33.56,33.56,33.56s33.56-15.09,33.56-33.56v-43.79c0-18.46-15.1-33.56-33.56-33.56s-33.57,15.09-33.57,33.56v4.25h32.11c7.96,0,7.96,12.1,0,12.1h-32.11v11.08h0ZM166.31,323.01c-7.96,0-7.96-12.1,0-12.1h33.79v-67.91c-30.77-2.83-55.66-23.09-55.66-56.01,0-7.96,12.1-7.96,12.1,0,0,28.91,24.23,44.23,50.57,44.23s50.57-15.32,50.57-44.23c0-7.96,12.1-7.96,12.1,0,0,33.73-26.14,54.07-57.59,56.16v67.75h33.79c7.96,0,7.96,12.1,0,12.1h-79.69Z"/>
</svg>