<?xml version="1.0" encoding="UTF-8"?>
<svg id="Layer_1" xmlns="http://www.w3.org/2000/svg" version="1.1" viewBox="0 0 414.24 414.24">
  <!-- Generator: Adobe Illustrator 29.8.4, SVG Export Plug-In . SVG Version: 2.1.1 Build 6)  -->
  <defs>
    <style>
      .st0 {
        fill: #fff;
      }

      .st1 {
        fill: #c13600;
      }
    </style>
  </defs>
  <circle class="st1" cx="207.12" cy="207.12" r="207.12"/>
  <path class="st0" d="M202.79,98.66c23.14,0,42.77,17.63,45.29,40.59l-11.8,11.8v-6.84c0-18.41-15.06-33.48-33.48-33.48s-33.49,15.05-33.49,33.48v4.24h32.04c7.94,0,7.94,12.08,0,12.08h-32.04v11.06h32.04c7.94,0,7.94,12.08,0,12.08h-32.04v4.24c0,8.36,3.1,16.03,8.21,21.92l-8.54,8.54c-7.29-8.1-11.74-18.78-11.74-30.45v-43.68c0-25.04,20.52-45.56,45.56-45.56h0ZM266.39,125.21c5.61-5.61,14.15,2.93,8.54,8.54l-98.68,98.68c8.16,4.03,17.49,5.87,26.55,5.87,26.28,0,50.45-15.29,50.45-44.12,0-7.94,12.08-7.94,12.08,0,0,33.65-26.08,53.94-57.46,56.03v67.59h33.71c7.94,0,7.94,12.08,0,12.08h-79.5c-7.94,0-7.94-12.08,0-12.08h33.71v-67.74c-9.91-.91-19.78-3.78-28.45-8.72l-19.49,19.49c-5.61,5.61-14.15-2.93-8.54-8.54l18.09-18.09c-10.38-9.33-17.14-22.66-17.14-40.01,0-7.94,12.08-7.94,12.08,0,0,13.65,5.39,24.12,13.65,31.43l100.4-100.4h0ZM248.35,164.6v23.31c0,25.06-20.5,45.56-45.55,45.56-6.81,0-13.28-1.52-19.09-4.22l9.32-9.32c3.09.95,6.37,1.46,9.77,1.46,18.43,0,33.48-15.05,33.48-33.48v-11.23l12.08-12.08h0Z"/>
</svg>