<?xml version="1.0" encoding="UTF-8"?>
<svg id="Layer_1" xmlns="http://www.w3.org/2000/svg" version="1.1" viewBox="0 0 414.24 414.24">
  <!-- Generator: Adobe Illustrator 29.8.4, SVG Export Plug-In . SVG Version: 2.1.1 Build 6)  -->
  <defs>
    <style>
      .st0 {
        fill: #fff;
      }

      .st1 {
        fill: #c13600;
      }
    </style>
  </defs>
  <circle class="st1" cx="207.12" cy="207.12" r="207.12"/>
  <g>
    <path class="st0" d="M242.11,135.5h-107.98c-10.85,0-19.63,8.79-19.63,19.63v107.98c0,2.4.47,4.71,1.25,6.85l133.23-133.21c-2.14-.81-4.44-1.25-6.85-1.25h-.02Z"/>
    <path class="st0" d="M308.94,152.07l-47.17,21.47v-18.41c0-2.45-.47-4.81-1.3-6.97l-133.28,133.28c2.16.83,4.52,1.3,6.97,1.3h107.98c10.85,0,19.63-8.79,19.63-19.63v-18.41l47.17,21.47c11.9,5.42,26.45-1.72,26.45-12.98v-88.15c0-11.26-14.55-18.38-26.45-12.98Z"/>
    <path class="st0" d="M281.6,123.53l-22.23,22.23-134.58,134.6-22.33,22.31c-2.18,2.21-5.77,2.21-7.95,0-2.21-2.18-2.21-5.77,0-7.98l22.33-22.33,134.56-134.56,22.26-22.26c1.1-1.1,2.55-1.64,4-1.64s2.87.54,3.98,1.64c2.21,2.18,2.21,5.77,0,7.98h-.02Z"/>
  </g>
</svg>